<svg width="512" height="512" viewBox="0 0 512 512" fill="none" xmlns="http://www.w3.org/2000/svg">
  <!-- Processing Machine Body -->
  <rect x="150" y="130" width="212" height="160" rx="20" fill="#2563EB" stroke="#1E40AF" stroke-width="8"/>

  <!-- Machine Details -->
  <circle cx="200" cy="175" r="16" fill="#60A5FA" opacity="0.8"/>
  <circle cx="256" cy="175" r="16" fill="#60A5FA" opacity="0.8"/>
  <circle cx="312" cy="175" r="16" fill="#60A5FA" opacity="0.8"/>

  <!-- Processing Indicator -->
  <rect x="175" y="220" width="162" height="12" rx="6" fill="#93C5FD"/>
  <rect x="175" y="242" width="120" height="12" rx="6" fill="#93C5FD"/>

  <!-- Conveyor Belt - Left Side -->
  <rect x="20" y="290" width="155" height="22" rx="11" fill="#374151" stroke="#1F2937" stroke-width="6"/>
  <circle cx="50" cy="301" r="8" fill="#6B7280"/>
  <circle cx="90" cy="301" r="8" fill="#6B7280"/>
  <circle cx="130" cy="301" r="8" fill="#6B7280"/>

  <!-- Conveyor Belt - Right Side -->
  <rect x="337" y="290" width="155" height="22" rx="11" fill="#374151" stroke="#1F2937" stroke-width="6"/>
  <circle cx="365" cy="301" r="8" fill="#6B7280"/>
  <circle cx="405" cy="301" r="8" fill="#6B7280"/>
  <circle cx="445" cy="301" r="8" fill="#6B7280"/>

  <!-- Input Document (left side - plain) -->
  <g transform="translate(60, 220)">
    <rect x="0" y="0" width="65" height="80" rx="6" fill="#E5E7EB" stroke="#9CA3AF" stroke-width="5"/>
    <line x1="12" y1="20" x2="53" y2="20" stroke="#9CA3AF" stroke-width="4"/>
    <line x1="12" y1="34" x2="53" y2="34" stroke="#9CA3AF" stroke-width="4"/>
    <line x1="12" y1="48" x2="40" y2="48" stroke="#9CA3AF" stroke-width="4"/>
    <line x1="12" y1="62" x2="48" y2="62" stroke="#9CA3AF" stroke-width="4"/>
  </g>

  <!-- Output Document 1 (right side - tailored) -->
  <g transform="translate(380, 195)">
    <rect x="0" y="0" width="65" height="80" rx="6" fill="#F0FDF4" stroke="#22C55E" stroke-width="6"/>
    <line x1="12" y1="20" x2="53" y2="20" stroke="#22C55E" stroke-width="4"/>
    <line x1="12" y1="34" x2="53" y2="34" stroke="#22C55E" stroke-width="4"/>
    <line x1="12" y1="48" x2="40" y2="48" stroke="#22C55E" stroke-width="4"/>
    <line x1="12" y1="62" x2="48" y2="62" stroke="#22C55E" stroke-width="4"/>
    <!-- Checkmark indicator -->
    <circle cx="53" cy="10" r="11" fill="#22C55E"/>
    <path d="M48 10 L51 13 L58 6" stroke="white" stroke-width="4" fill="none" stroke-linecap="round" stroke-linejoin="round"/>
  </g>

  <!-- Output Document 2 (right side - slightly offset) -->
  <g transform="translate(400, 220)">
    <rect x="0" y="0" width="65" height="80" rx="6" fill="#F0FDF4" stroke="#22C55E" stroke-width="6"/>
    <line x1="12" y1="20" x2="53" y2="20" stroke="#22C55E" stroke-width="4"/>
    <line x1="12" y1="34" x2="53" y2="34" stroke="#22C55E" stroke-width="4"/>
    <line x1="12" y1="48" x2="40" y2="48" stroke="#22C55E" stroke-width="4"/>
    <line x1="12" y1="62" x2="48" y2="62" stroke="#22C55E" stroke-width="4"/>
    <!-- Checkmark indicator -->
    <circle cx="53" cy="10" r="11" fill="#22C55E"/>
    <path d="M48 10 L51 13 L58 6" stroke="white" stroke-width="4" fill="none" stroke-linecap="round" stroke-linejoin="round"/>
  </g>

  <!-- AI Sparkle Effect -->
  <g opacity="0.9">
    <path d="M256 85 L261 105 L281 110 L261 115 L256 135 L251 115 L231 110 L251 105 Z" fill="#FBBF24"/>
    <path d="M295 100 L298 112 L310 115 L298 118 L295 130 L292 118 L280 115 L292 112 Z" fill="#FBBF24"/>
    <path d="M217 105 L220 115 L230 118 L220 121 L217 131 L214 121 L204 118 L214 115 Z" fill="#FBBF24"/>
  </g>

  <!-- Machine Legs -->
  <rect x="165" y="290" width="22" height="40" rx="6" fill="#1E40AF"/>
  <rect x="325" y="290" width="22" height="40" rx="6" fill="#1E40AF"/>
</svg>
